Coordinates
version=1
nRows=30
nColumns=38
inDegrees=no

Units are S.I. units (second, meters, Newtons, ...)
If the header above contains a line with 'inDegrees', this indicates whether rotational values are in degrees (yes) or radians (no).

endheader
time	pelvis_tilt	pelvis_list	pelvis_rotation	pelvis_tx	pelvis_ty	pelvis_tz	hip_flexion_r	hip_adduction_r	hip_rotation_r	knee_angle_r	ankle_angle_r	subtalar_angle_r	mtp_angle_r	hip_flexion_l	hip_adduction_l	hip_rotation_l	knee_angle_l	ankle_angle_l	subtalar_angle_l	mtp_angle_l	lumbar_extension	lumbar_bending	lumbar_rotation	arm_flex_r	arm_add_r	arm_rot_r	elbow_flex_r	pro_sup_r	wrist_flex_r	wrist_dev_r	arm_flex_l	arm_add_l	arm_rot_l	elbow_flex_l	pro_sup_l	wrist_flex_l	wrist_dev_l
1.48	-0.0286517	1.39992	-1.37805	0.716508	-0.0446797	0.925521	0.221751	-0.0184942	-0.0650101	0.20803	-0.255058	0	0	-0.433311	-0.0110359	-0.0721914	0.228744	-0.0263383	0	0	-0.412432	0.139169	-0.0475425	-0.122201	-0.609624	0.778313	0.866071	0.501973	0	0	-0.111337	-0.245495	0.186073	0.629896	1.36502	0	0
1.49	-0.0469708	1.39932	-1.35785	0.716441	-0.0552498	0.924661	0.228577	-0.0115736	-0.0695874	0.253041	-0.235424	0	0	-0.438805	-0.0177701	-0.0705226	0.243096	-0.0231305	0	0	-0.410548	0.143497	-0.0498833	-0.12661	-0.608339	0.77316	0.866765	0.505836	0	0	-0.114606	-0.244558	0.18264	0.628222	1.36738	0	0
1.5	-0.0706478	1.39967	-1.33166	0.716353	-0.0660371	0.923934	0.232298	-0.00410257	-0.0703061	0.280008	-0.228093	0	0	-0.442191	-0.0256995	-0.0689357	0.259031	-0.0218092	0	0	-0.406758	0.14852	-0.0531011	-0.130162	-0.606599	0.770411	0.86578	0.510138	0	0	-0.11803	-0.243181	0.178484	0.625013	1.37117	0	0
1.51	-0.0993537	1.40136	-1.30042	0.716263	-0.077008	0.923304	0.234695	0.00353533	-0.06728	0.293714	-0.236148	0	0	-0.442634	-0.034076	-0.0670688	0.277537	-0.0216151	0	0	-0.40082	0.154054	-0.0570113	-0.133093	-0.604584	0.769137	0.863597	0.515068	0	0	-0.121839	-0.240931	0.172768	0.620387	1.37588	0	0
1.52	-0.12949	1.40306	-1.26926	0.716119	-0.0880036	0.922781	0.234408	0.0117211	-0.0580806	0.297905	-0.25768	0	0	-0.44163	-0.0419038	-0.0665753	0.298661	-0.0218181	0	0	-0.395155	0.159468	-0.0599285	-0.135726	-0.60369	0.768339	0.862524	0.519424	0	0	-0.126509	-0.238219	0.165411	0.617267	1.38064	0	0
1.53	-0.160334	1.40473	-1.23718	0.715879	-0.09926	0.922368	0.230829	0.0204754	-0.0474763	0.295659	-0.28575	0	0	-0.439162	-0.050388	-0.0661868	0.322513	-0.0232273	0	0	-0.389018	0.164783	-0.0636939	-0.138411	-0.602625	0.767626	0.861482	0.523011	0	0	-0.132704	-0.235625	0.156404	0.615831	1.38546	0	0
1.54	-0.194695	1.40693	-1.20104	0.715406	-0.110904	0.922033	0.225982	0.0300347	-0.037421	0.290606	-0.317881	0	0	-0.434078	-0.0602874	-0.0652134	0.349971	-0.0263475	0	0	-0.381154	0.169768	-0.0691894	-0.140203	-0.599931	0.768736	0.858157	0.527628	0	0	-0.140792	-0.233215	0.144477	0.614711	1.39265	0	0
1.55	-0.235814	1.40798	-1.1579	0.714768	-0.12276	0.92196	0.221313	0.0410338	-0.0296679	0.289493	-0.34478	0	0	-0.427659	-0.0725314	-0.0643293	0.380594	-0.031895	0	0	-0.373492	0.175551	-0.0745639	-0.141351	-0.596576	0.771491	0.853334	0.532099	0	0	-0.148888	-0.231693	0.13421	0.612892	1.39988	0	0
1.56	-0.280802	1.40917	-1.11142	0.71401	-0.134658	0.921957	0.221351	0.0518151	-0.0238569	0.300232	-0.365501	0	0	-0.417998	-0.0853989	-0.0622742	0.415923	-0.0394305	0	0	-0.365236	0.181176	-0.0797051	-0.142043	-0.593252	0.775208	0.848308	0.536402	0	0	-0.157421	-0.230286	0.123481	0.611322	1.40777	0	0
1.57	-0.326742	1.41029	-1.06585	0.713127	-0.14651	0.921988	0.22551	0.0622563	-0.0188067	0.322913	-0.373115	0	0	-0.405204	-0.0975277	-0.0594512	0.456575	-0.0498411	0	0	-0.357387	0.186522	-0.0837997	-0.143012	-0.591481	0.778125	0.845868	0.539356	0	0	-0.166558	-0.228214	0.111066	0.611928	1.41336	0	0
1.58	-0.370636	1.4105	-1.02436	0.712092	-0.158262	0.922126	0.229829	0.0730246	-0.0122572	0.349988	-0.368473	0	0	-0.390136	-0.108973	-0.0565642	0.502605	-0.0635717	0	0	-0.351235	0.191356	-0.0858867	-0.144084	-0.59115	0.780945	0.845747	0.541544	0	0	-0.176701	-0.226293	0.0980477	0.615834	1.41895	0	0
1.59	-0.411349	1.40857	-0.98766	0.710954	-0.169881	0.922551	0.230176	0.0849691	-0.00533009	0.373353	-0.35653	0	0	-0.374044	-0.120936	-0.0543655	0.553489	-0.0805267	0	0	-0.347869	0.196334	-0.085454	-0.145286	-0.592365	0.783802	0.8478	0.543209	0	0	-0.1865	-0.225034	0.0873422	0.621304	1.42357	0	0
1.6	-0.44957	1.40499	-0.954547	0.709751	-0.181385	0.923213	0.228443	0.0974328	-0.00319485	0.397364	-0.336099	0	0	-0.355938	-0.133622	-0.0516606	0.610111	-0.104701	0	0	-0.346395	0.201657	-0.0844979	-0.145062	-0.594827	0.788654	0.851186	0.544424	0	0	-0.19682	-0.223291	0.0750367	0.6279	1.43007	0	0
1.61	-0.480532	1.39874	-0.928468	0.708562	-0.192782	0.924154	0.220747	0.110172	-0.00695897	0.413934	-0.32149	0	0	-0.337117	-0.147555	-0.0472491	0.671381	-0.132183	0	0	-0.347917	0.207751	-0.0826741	-0.145366	-0.598094	0.792394	0.856271	0.544088	0	0	-0.206363	-0.222136	0.0648673	0.635112	1.43471	0	0
1.62	-0.502037	1.39136	-0.912461	0.707368	-0.203981	0.925049	0.208347	0.121428	-0.0135894	0.423534	-0.309317	0	0	-0.316585	-0.16087	-0.0419811	0.736452	-0.166992	0	0	-0.352075	0.213359	-0.0801987	-0.145772	-0.602822	0.795633	0.864319	0.542527	0	0	-0.216725	-0.221211	0.0540167	0.645427	1.43814	0	0
1.63	-0.517857	1.38351	-0.902847	0.706177	-0.214963	0.925757	0.193401	0.131845	-0.0204874	0.430001	-0.297107	0	0	-0.29369	-0.173404	-0.0372547	0.80377	-0.20701	0	0	-0.357989	0.218523	-0.0772677	-0.146147	-0.609241	0.798553	0.875302	0.539753	0	0	-0.228012	-0.220676	0.0431206	0.658633	1.44087	0	0
1.64	-0.531916	1.3758	-0.895716	0.704977	-0.22576	0.926204	0.177612	0.141763	-0.027571	0.43532	-0.28368	0	0	-0.268309	-0.185124	-0.0323655	0.872597	-0.248853	0	0	-0.364271	0.223155	-0.0740866	-0.146067	-0.617314	0.802725	0.888571	0.537138	0	0	-0.240558	-0.220508	0.0323111	0.674422	1.44316	0	0
1.65	-0.544762	1.36841	-0.890118	0.703855	-0.236322	0.926457	0.161938	0.150851	-0.0356715	0.44072	-0.26959	0	0	-0.240638	-0.196206	-0.0285682	0.941705	-0.288234	0	0	-0.370908	0.227579	-0.070733	-0.145679	-0.626384	0.806784	0.903025	0.534004	0	0	-0.253313	-0.220188	0.0214477	0.691221	1.44469	0	0
1.66	-0.557297	1.36097	-0.883935	0.702885	-0.24651	0.926626	0.146547	0.159442	-0.0447043	0.445616	-0.258189	0	0	-0.211134	-0.207533	-0.0237994	1.01044	-0.318244	0	0	-0.377735	0.232539	-0.0668158	-0.145713	-0.635362	0.80946	0.917171	0.531215	0	0	-0.263938	-0.219964	0.0130493	0.706534	1.4458	0	0
1.67	-0.571093	1.35387	-0.87685	0.701978	-0.256421	0.926694	0.132543	0.168069	-0.052322	0.451379	-0.246241	0	0	-0.179857	-0.219085	-0.0200863	1.07852	-0.348713	0	0	-0.384755	0.237701	-0.0622474	-0.145579	-0.644932	0.8115	0.932115	0.527497	0	0	-0.273935	-0.219558	0.0053621	0.722186	1.44696	0	0
1.68	-0.580215	1.34547	-0.873644	0.701306	-0.265987	0.927073	0.116031	0.176957	-0.0590205	0.453468	-0.236116	0	0	-0.149625	-0.230494	-0.0159606	1.14334	-0.378961	0	0	-0.393876	0.243421	-0.0566797	-0.144944	-0.654396	0.813685	0.946003	0.523138	0	0	-0.281759	-0.218733	-0.00120702	0.736939	1.44766	0	0
1.69	-0.577825	1.33567	-0.880804	0.70066	-0.275374	0.92794	0.0951674	0.1853	-0.0621793	0.452065	-0.228227	0	0	-0.122772	-0.240417	-0.0108848	1.20272	-0.406816	0	0	-0.405677	0.248026	-0.0507732	-0.143991	-0.661973	0.815595	0.957193	0.518826	0	0	-0.287161	-0.218585	-0.00572921	0.749714	1.44793	0	0
1.7	-0.568863	1.32542	-0.892794	0.700117	-0.284552	0.929202	0.0710795	0.193115	-0.0627058	0.446604	-0.221736	0	0	-0.0976434	-0.24874	-0.00434018	1.25694	-0.425959	0	0	-0.418534	0.251794	-0.0452012	-0.142601	-0.667317	0.817464	0.965087	0.514863	0	0	-0.29028	-0.218925	-0.00852966	0.760288	1.44806	0	0
1.71	-0.551185	1.31584	-0.911735	0.699572	-0.293389	0.930895	0.0442301	0.198816	-0.0610058	0.436652	-0.216713	0	0	-0.0730795	-0.252915	0.00542047	1.30543	-0.431432	0	0	-0.432161	0.253166	-0.041011	-0.139306	-0.669255	0.820162	0.968253	0.509893	0	0	-0.290312	-0.219946	-0.0100639	0.767214	1.44781	0	0
1.72	-0.534176	1.30408	-0.931241	0.698889	-0.302442	0.932577	0.0129879	0.206171	-0.0563339	0.42295	-0.21275	0	0	-0.0522243	-0.260134	0.00800231	1.34949	-0.421832	0	0	-0.447138	0.254813	-0.0357135	-0.1362	-0.671226	0.823084	0.971339	0.504456	0	0	-0.291159	-0.221021	-0.0114618	0.77392	1.44673	0	0
1.73	-0.51182	1.29279	-0.955075	0.698235	-0.311147	0.934484	-0.0208258	0.21153	-0.0500614	0.40393	-0.209991	0	0	-0.0325804	-0.263491	0.0137624	1.38881	-0.396064	0	0	-0.463182	0.25462	-0.0320385	-0.130522	-0.671883	0.828388	0.97249	0.497488	0	0	-0.290576	-0.222888	-0.01159	0.779304	1.44473	0	0
1.74	-0.48957	1.28532	-0.978225	0.697589	-0.319559	0.936348	-0.0505504	0.213624	-0.0446347	0.385911	-0.209052	0	0	-0.0097901	-0.26185	0.0223599	1.42295	-0.364203	0	0	-0.475234	0.251826	-0.0301646	-0.123083	-0.670129	0.83582	0.969554	0.489664	0	0	-0.288283	-0.225181	-0.010387	0.781732	1.44222	0	0
1.75	-0.473599	1.27764	-0.997756	0.696816	-0.328316	0.937919	-0.0789248	0.216559	-0.040724	0.370817	-0.20784	0	0	0.0114661	-0.262992	0.0231062	1.45156	-0.340378	0	0	-0.485689	0.249432	-0.0258791	-0.11815	-0.669528	0.841596	0.968386	0.483893	0	0	-0.287762	-0.226738	-0.00975577	0.785309	1.44058	0	0
1.76	-0.453009	1.27151	-1.02248	0.696039	-0.336686	0.93968	-0.106312	0.216462	-0.0376725	0.354353	-0.208462	0	0	0.0323018	-0.259153	0.0252599	1.47308	-0.318858	0	0	-0.496044	0.244417	-0.0217325	-0.112303	-0.667714	0.846962	0.965792	0.477903	0	0	-0.285648	-0.228153	-0.00933875	0.787759	1.43903	0	0
1.77	-0.43026	1.26672	-1.05075	0.695235	-0.344803	0.94143	-0.131301	0.214049	-0.0339119	0.340391	-0.210283	0	0	0.0526435	-0.252084	0.0265158	1.48877	-0.299468	0	0	-0.505787	0.237183	-0.0171557	-0.106031	-0.665975	0.852153	0.963315	0.471931	0	0	-0.282368	-0.229138	-0.00894495	0.788278	1.4374	0	0
